<svg xmlns="http://www.w3.org/2000/svg" viewBox="0 0 480 300" role="img" aria-label="Anchor artifact: funding stress spread proxy">
  <rect width="480" height="300" fill="#ffffff"/>
  <rect x="18" y="16" width="444" height="268" rx="6" fill="#ffffff" stroke="#cfd6e0"/>
  <rect x="18" y="16" width="444" height="34" rx="6" fill="#f6f8fb" stroke="#cfd6e0"/>
  <text x="32" y="38" font-family="IBM Plex Sans, Arial" font-size="12" font-weight="600" fill="#1d2733">Anchor A6 | Funding Stress Spread</text>

  <rect x="32" y="66" width="294" height="170" fill="#fbfcfe" stroke="#d8dde5"/>
  <g stroke="#e3e8ef" stroke-width="1">
    <line x1="32" y1="100" x2="326" y2="100"/>
    <line x1="32" y1="134" x2="326" y2="134"/>
    <line x1="32" y1="168" x2="326" y2="168"/>
    <line x1="32" y1="202" x2="326" y2="202"/>
  </g>

  <polyline fill="none" stroke="#121212" stroke-width="2.6" points="36,208 58,206 80,204 102,202 124,200 146,198 168,194 190,188 212,172 234,150 256,126 278,114 300,120 322,134"/>
  <polyline fill="none" stroke="#7f4a1e" stroke-width="2.2" points="36,188 58,186 80,184 102,182 124,180 146,178 168,174 190,168 212,154 234,136 256,118 278,108 300,112 322,124"/>
  <line x1="32" y1="148" x2="326" y2="148" stroke="#a33232" stroke-width="1.5" stroke-dasharray="5 4"/>
  <text x="36" y="140" font-family="IBM Plex Sans, Arial" font-size="10" fill="#a33232">funding stress boundary</text>

  <rect x="340" y="66" width="106" height="170" fill="#f6f8fb" stroke="#d8dde5"/>
  <text x="350" y="92" font-family="IBM Plex Sans, Arial" font-size="10" font-weight="600" fill="#2a3644">Source Slice</text>
  <text x="350" y="110" font-family="IBM Plex Sans, Arial" font-size="10" fill="#4f5b6a">basis + funding curves</text>
  <text x="350" y="136" font-family="IBM Plex Sans, Arial" font-size="10" font-weight="600" fill="#2a3644">Stored Fields</text>
  <text x="350" y="154" font-family="IBM Plex Sans, Arial" font-size="10" fill="#4f5b6a">basis dislocation</text>
  <text x="350" y="170" font-family="IBM Plex Sans, Arial" font-size="10" fill="#4f5b6a">funding spread</text>
  <text x="350" y="196" font-family="IBM Plex Sans, Arial" font-size="10" font-weight="600" fill="#2a3644">Anchor Rule</text>
  <text x="350" y="214" font-family="IBM Plex Sans, Arial" font-size="10" fill="#4f5b6a">stress boundary breach</text>

  <rect x="32" y="246" width="414" height="24" fill="#f9fafc" stroke="#d8dde5"/>
  <text x="40" y="262" font-family="IBM Plex Sans, Arial" font-size="10" fill="#4f5b6a">Replay payload: keeps funding stress behavior in memory so updates do not over-leverage during basis dislocation.</text>
</svg>
