<svg xmlns="http://www.w3.org/2000/svg" viewBox="0 0 480 300" role="img" aria-label="Anchor artifact: gap-open stress tape">
  <rect width="480" height="300" fill="#ffffff"/>
  <rect x="18" y="16" width="444" height="268" rx="6" fill="#ffffff" stroke="#cfd6e0"/>
  <rect x="18" y="16" width="444" height="34" rx="6" fill="#f6f8fb" stroke="#cfd6e0"/>
  <text x="32" y="38" font-family="IBM Plex Sans, Arial" font-size="12" font-weight="600" fill="#1d2733">Anchor A2 | Gap-Open Session</text>

  <rect x="32" y="66" width="294" height="170" fill="#fbfcfe" stroke="#d8dde5"/>
  <g stroke="#e3e8ef" stroke-width="1">
    <line x1="32" y1="100" x2="326" y2="100"/>
    <line x1="32" y1="134" x2="326" y2="134"/>
    <line x1="32" y1="168" x2="326" y2="168"/>
    <line x1="32" y1="202" x2="326" y2="202"/>
  </g>

  <rect x="46" y="150" width="16" height="30" fill="#2f557f"/>
  <rect x="72" y="144" width="16" height="36" fill="#2f557f"/>
  <rect x="98" y="140" width="16" height="40" fill="#2f557f"/>
  <rect x="124" y="136" width="16" height="44" fill="#2f557f"/>
  <rect x="150" y="130" width="16" height="50" fill="#2f557f"/>
  <rect x="176" y="90" width="16" height="90" fill="#7f4a1e"/>
  <rect x="202" y="96" width="16" height="84" fill="#7f4a1e"/>
  <rect x="228" y="102" width="16" height="78" fill="#7f4a1e"/>
  <rect x="254" y="108" width="16" height="72" fill="#7f4a1e"/>
  <rect x="280" y="114" width="16" height="66" fill="#7f4a1e"/>

  <line x1="168" y1="78" x2="168" y2="224" stroke="#a33232" stroke-width="1.5" stroke-dasharray="4 3"/>
  <text x="174" y="84" font-family="IBM Plex Sans, Arial" font-size="10" fill="#a33232">gap event</text>

  <rect x="340" y="66" width="106" height="170" fill="#f6f8fb" stroke="#d8dde5"/>
  <text x="350" y="92" font-family="IBM Plex Sans, Arial" font-size="10" font-weight="600" fill="#2a3644">Source Slice</text>
  <text x="350" y="110" font-family="IBM Plex Sans, Arial" font-size="10" fill="#4f5b6a">Index + futures</text>
  <text x="350" y="136" font-family="IBM Plex Sans, Arial" font-size="10" font-weight="600" fill="#2a3644">Stored Fields</text>
  <text x="350" y="154" font-family="IBM Plex Sans, Arial" font-size="10" fill="#4f5b6a">overnight return</text>
  <text x="350" y="170" font-family="IBM Plex Sans, Arial" font-size="10" fill="#4f5b6a">open slippage</text>
  <text x="350" y="196" font-family="IBM Plex Sans, Arial" font-size="10" font-weight="600" fill="#2a3644">Anchor Rule</text>
  <text x="350" y="214" font-family="IBM Plex Sans, Arial" font-size="10" fill="#4f5b6a">gap magnitude > 2.5%</text>

  <rect x="32" y="246" width="414" height="24" fill="#f9fafc" stroke="#d8dde5"/>
  <text x="40" y="262" font-family="IBM Plex Sans, Arial" font-size="10" fill="#4f5b6a">Replay payload: preserves open auction behavior so adapter updates do not erase jump-risk handling.</text>
</svg>
