<svg xmlns="http://www.w3.org/2000/svg" viewBox="0 0 480 300" role="img" aria-label="Anchor artifact: sector cascade drawdown">
  <rect width="480" height="300" fill="#ffffff"/>
  <rect x="18" y="16" width="444" height="268" rx="6" fill="#ffffff" stroke="#cfd6e0"/>
  <rect x="18" y="16" width="444" height="34" rx="6" fill="#f6f8fb" stroke="#cfd6e0"/>
  <text x="32" y="38" font-family="IBM Plex Sans, Arial" font-size="12" font-weight="600" fill="#1d2733">Anchor A5 | Sector Cascade Drawdown</text>

  <rect x="32" y="66" width="294" height="170" fill="#fbfcfe" stroke="#d8dde5"/>
  <g stroke="#e3e8ef" stroke-width="1">
    <line x1="32" y1="100" x2="326" y2="100"/>
    <line x1="32" y1="134" x2="326" y2="134"/>
    <line x1="32" y1="168" x2="326" y2="168"/>
    <line x1="32" y1="202" x2="326" y2="202"/>
  </g>

  <polyline fill="none" stroke="#2f557f" stroke-width="2.6" points="36,112 58,110 80,108 102,106 124,105 146,108 168,116 190,132 212,146 234,148 256,146 278,143 300,140 322,138"/>
  <polyline fill="none" stroke="#a33232" stroke-width="2.6" points="36,118 58,116 80,114 102,112 124,111 146,114 168,128 190,158 212,182 234,188 256,186 278,182 300,178 322,176"/>
  <polyline fill="none" stroke="#5f6774" stroke-width="2.6" points="36,114 58,112 80,110 102,109 124,108 146,110 168,122 190,146 212,164 234,170 256,168 278,165 300,162 322,160"/>
  <line x1="182" y1="72" x2="182" y2="226" stroke="#a33232" stroke-width="1.5" stroke-dasharray="4 3"/>
  <text x="188" y="82" font-family="IBM Plex Sans, Arial" font-size="10" fill="#a33232">cascade trigger</text>

  <rect x="340" y="66" width="106" height="170" fill="#f6f8fb" stroke="#d8dde5"/>
  <text x="350" y="92" font-family="IBM Plex Sans, Arial" font-size="10" font-weight="600" fill="#2a3644">Source Slice</text>
  <text x="350" y="110" font-family="IBM Plex Sans, Arial" font-size="10" fill="#4f5b6a">sector baskets</text>
  <text x="350" y="136" font-family="IBM Plex Sans, Arial" font-size="10" font-weight="600" fill="#2a3644">Stored Fields</text>
  <text x="350" y="154" font-family="IBM Plex Sans, Arial" font-size="10" fill="#4f5b6a">drawdown velocity</text>
  <text x="350" y="170" font-family="IBM Plex Sans, Arial" font-size="10" fill="#4f5b6a">sector lead/lag</text>
  <text x="350" y="196" font-family="IBM Plex Sans, Arial" font-size="10" font-weight="600" fill="#2a3644">Anchor Rule</text>
  <text x="350" y="214" font-family="IBM Plex Sans, Arial" font-size="10" fill="#4f5b6a">multi-sector cascade</text>

  <rect x="32" y="246" width="414" height="24" fill="#f9fafc" stroke="#d8dde5"/>
  <text x="40" y="262" font-family="IBM Plex Sans, Arial" font-size="10" fill="#4f5b6a">Replay payload: sector shock trajectories constrain updates that over-concentrate into recent winners.</text>
</svg>
