<svg xmlns="http://www.w3.org/2000/svg" viewBox="0 0 320 200" role="img" aria-label="Sector cascade drawdown chart">
  <rect width="320" height="200" fill="#ffffff"/>
  <rect x="32" y="22" width="270" height="148" fill="#f7f9fb" stroke="#d8dde5"/>
  <polyline fill="none" stroke="#1f3f68" stroke-width="2.6" points="36,102 58,100 80,98 102,97 124,96 146,98 168,102 190,118 212,124 234,120 256,117 278,115 300,112"/>
  <polyline fill="none" stroke="#8f2f2f" stroke-width="2.6" points="36,110 58,108 80,106 102,105 124,104 146,106 168,116 190,140 212,154 234,150 256,146 278,143 300,140"/>
  <polyline fill="none" stroke="#4f5968" stroke-width="2.6" points="36,106 58,104 80,103 102,102 124,101 146,103 168,111 190,129 212,138 234,136 256,134 278,132 300,130"/>
  <rect x="184" y="24" width="58" height="144" fill="#8f2f2f" opacity="0.08"/>
  <line x1="32" y1="170" x2="302" y2="170" stroke="#7a8493" stroke-width="1"/>
  <text x="36" y="16" font-family="IBM Plex Sans,Arial" font-size="11" fill="#263242">Sector Cascade Drawdown</text>
  <text x="36" y="186" font-family="IBM Plex Sans,Arial" font-size="10" fill="#4f5a69">Tech / Energy / Banks trajectories</text>
</svg>
