<svg xmlns="http://www.w3.org/2000/svg" viewBox="0 0 900 360" role="img" aria-label="Risk-budget projection of raw update onto feasible half-space">
  <defs>
    <style>
      .title { font: 600 18px 'IBM Plex Sans', Arial, sans-serif; fill: #1d2430; }
      .axis { font: 500 12px 'IBM Plex Sans', Arial, sans-serif; fill: #4b5565; }
      .label { font: 500 12px 'IBM Plex Sans', Arial, sans-serif; fill: #2f3b4a; }
    </style>
    <marker id="arrow-raw" markerWidth="8" markerHeight="8" refX="7" refY="4" orient="auto">
      <path d="M0,0 L8,4 L0,8 z" fill="#b33a35"/>
    </marker>
    <marker id="arrow-proj" markerWidth="8" markerHeight="8" refX="7" refY="4" orient="auto">
      <path d="M0,0 L8,4 L0,8 z" fill="#1f2833"/>
    </marker>
  </defs>

  <rect width="900" height="360" fill="#ffffff"/>
  <rect x="10" y="10" width="880" height="340" rx="10" fill="#ffffff" stroke="#d4dbe4"/>

  <text x="28" y="38" class="title">Risk-budget constrained trade update</text>

  <line x1="120" y1="294" x2="690" y2="294" stroke="#8d99aa" stroke-width="1.6"/>
  <line x1="120" y1="294" x2="120" y2="76" stroke="#8d99aa" stroke-width="1.6"/>
  <text x="694" y="314" class="axis">Market beta change</text>
  <text x="36" y="84" class="axis" transform="rotate(-90 36,84)">Value beta change</text>

  <polygon points="262,98 690,98 690,294 382,294" fill="#eef4ef"/>
  <line x1="262" y1="98" x2="382" y2="294" stroke="#47644f" stroke-width="2.5" stroke-dasharray="8 6"/>
  <text x="476" y="118" class="label">feasible region (risk budget)</text>

  <circle cx="196" cy="270" r="4.8" fill="#1f2833"/>
  <text x="160" y="290" class="label">current</text>

  <line x1="196" y1="270" x2="556" y2="118" stroke="#b33a35" stroke-width="3" marker-end="url(#arrow-raw)"/>
  <text x="562" y="112" class="label" fill="#b33a35">raw update</text>

  <line x1="196" y1="270" x2="346" y2="236" stroke="#1f2833" stroke-width="3" marker-end="url(#arrow-proj)"/>
  <circle cx="346" cy="236" r="4.2" fill="#1f2833"/>
  <text x="352" y="230" class="label">projected update</text>

  <line x1="346" y1="236" x2="556" y2="118" stroke="#8d99aa" stroke-width="1.3" stroke-dasharray="4 5"/>
  <text x="446" y="190" class="label">closest feasible correction</text>
</svg>
