<svg xmlns="http://www.w3.org/2000/svg" viewBox="0 0 860 360" role="img" aria-label="Exposure-space projection of raw update onto risk-budget feasible region">
  <defs>
    <style>
      .title { font: 600 16px 'IBM Plex Sans', Arial, sans-serif; fill: #1f2933; }
      .axis { font: 500 12px 'IBM Plex Sans', Arial, sans-serif; fill: #475569; }
      .label { font: 500 12px 'IBM Plex Sans', Arial, sans-serif; fill: #334155; }
      .raw { font: 600 12px 'IBM Plex Sans', Arial, sans-serif; fill: #a33232; }
    </style>
    <marker id="arr-raw" markerWidth="8" markerHeight="8" refX="7" refY="4" orient="auto">
      <path d="M0,0 L8,4 L0,8 z" fill="#a33232"/>
    </marker>
    <marker id="arr-proj" markerWidth="8" markerHeight="8" refX="7" refY="4" orient="auto">
      <path d="M0,0 L8,4 L0,8 z" fill="#1f2933"/>
    </marker>
  </defs>

  <rect width="860" height="360" fill="#ffffff"/>
  <rect x="10" y="10" width="840" height="340" rx="10" fill="#ffffff" stroke="#d8dde5"/>
  <text x="34" y="40" class="title">Risk-Budget Projection in Exposure Space</text>

  <!-- axes -->
  <line x1="120" y1="296" x2="640" y2="296" stroke="#8b97a8" stroke-width="1.5"/>
  <line x1="120" y1="296" x2="120" y2="82" stroke="#8b97a8" stroke-width="1.5"/>
  <text x="642" y="314" class="axis">Market exposure change (beta)</text>
  <text x="40" y="88" class="axis" transform="rotate(-90 40,88)">Value exposure change (beta)</text>

  <!-- feasible half-space -->
  <polygon points="222,96 640,96 640,296 358,296" fill="#eef3ef"/>
  <line x1="222" y1="96" x2="358" y2="296" stroke="#4d6656" stroke-width="2.4" stroke-dasharray="8 6"/>
  <text x="456" y="116" class="label">Risk budget feasible region</text>

  <!-- current point -->
  <circle cx="204" cy="274" r="5" fill="#1f2933"/>
  <text x="168" y="294" class="label">current</text>

  <!-- raw update -->
  <line x1="204" y1="274" x2="514" y2="118" stroke="#a33232" stroke-width="3" marker-end="url(#arr-raw)"/>
  <text x="520" y="112" class="raw">raw update (violates budget)</text>

  <!-- projected update -->
  <line x1="204" y1="274" x2="332" y2="258" stroke="#1f2933" stroke-width="3" marker-end="url(#arr-proj)"/>
  <circle cx="332" cy="258" r="4" fill="#1f2933"/>
  <text x="338" y="250" class="label">projected update</text>

  <line x1="332" y1="258" x2="514" y2="118" stroke="#7a8699" stroke-width="1.4" stroke-dasharray="4 5"/>
  <text x="426" y="206" class="label">clipped distance</text>
</svg>
