<svg xmlns="http://www.w3.org/2000/svg" viewBox="0 0 920 340" role="img" aria-label="Risk-budget constrained projection in exposure space">
  <defs>
    <style>
      .title { font: 600 19px 'IBM Plex Sans', sans-serif; fill: #111823; }
      .axis { font: 500 12px 'IBM Plex Sans', sans-serif; fill: #4d5869; }
      .label { font: 500 12px 'IBM Plex Sans', sans-serif; fill: #223141; }
    </style>
    <marker id="raw-arrow" markerWidth="10" markerHeight="10" refX="9" refY="5" orient="auto">
      <path d="M0,0 L10,5 L0,10 z" fill="#b13f35"/>
    </marker>
    <marker id="proj-arrow" markerWidth="10" markerHeight="10" refX="9" refY="5" orient="auto">
      <path d="M0,0 L10,5 L0,10 z" fill="#1f2c3a"/>
    </marker>
  </defs>

  <rect width="920" height="340" fill="#ffffff"/>
  <rect x="10" y="10" width="900" height="320" rx="12" fill="#ffffff" stroke="#d4dce6"/>
  <text x="30" y="40" class="title">Risk-budget constrained trade update</text>

  <line x1="108" y1="284" x2="664" y2="284" stroke="#8a97aa" stroke-width="1.6"/>
  <line x1="108" y1="284" x2="108" y2="78" stroke="#8a97aa" stroke-width="1.6"/>
  <text x="670" y="304" class="axis">Delta Market beta</text>
  <text x="36" y="84" class="axis" transform="rotate(-90 36,84)">Delta Value beta</text>

  <polygon points="300,92 664,92 664,284 420,284" fill="#eef5ef"/>
  <line x1="300" y1="92" x2="420" y2="284" stroke="#40634d" stroke-width="2.2" stroke-dasharray="8 6"/>
  <text x="466" y="110" class="label">risk-budget half-space</text>

  <circle cx="196" cy="258" r="5" fill="#1f2c3a"/>
  <line x1="196" y1="258" x2="546" y2="118" stroke="#b13f35" stroke-width="3" marker-end="url(#raw-arrow)"/>
  <text x="554" y="116" class="label">raw update g_raw</text>

  <line x1="196" y1="258" x2="360" y2="232" stroke="#1f2c3a" stroke-width="3" marker-end="url(#proj-arrow)"/>
  <text x="368" y="230" class="label">projected update g_proj</text>
</svg>
