<svg xmlns="http://www.w3.org/2000/svg" viewBox="0 0 1200 330" role="img" aria-label="Naive strategy pipeline diagram">
  <defs>
    <style>
      .label { font: 600 12px 'IBM Plex Sans', Arial, sans-serif; letter-spacing: 0.06em; fill: #5b6572; text-transform: uppercase; }
      .node-title { font: 600 14px 'IBM Plex Sans', Arial, sans-serif; fill: #1d2733; }
      .node-sub { font: 400 12px 'IBM Plex Sans', Arial, sans-serif; fill: #3e4855; }
      .tag { font: 600 11px 'IBM Plex Sans', Arial, sans-serif; fill: #1f2937; }
      .tag-val { font: 400 11px 'IBM Plex Sans', Arial, sans-serif; fill: #374151; }
    </style>
    <marker id="arr-naive" markerWidth="8" markerHeight="8" refX="7" refY="4" orient="auto">
      <path d="M0,0 L8,4 L0,8 z" fill="#374151"/>
    </marker>
  </defs>

  <rect x="0" y="0" width="1200" height="330" fill="#ffffff"/>
  <rect x="12" y="12" width="1176" height="306" rx="8" fill="#ffffff" stroke="#d8dde5"/>

  <text x="72" y="48" class="label">Input</text>
  <text x="294" y="48" class="label">Frozen System</text>
  <text x="514" y="48" class="label">Memory</text>
  <text x="734" y="48" class="label">Update</text>
  <text x="954" y="48" class="label">Decision</text>

  <rect x="40" y="120" width="180" height="88" rx="8" fill="#edf2f8" stroke="#50627a" stroke-width="1.4"/>
  <text x="130" y="154" text-anchor="middle" class="node-title">LLM Drift Stream</text>
  <text x="130" y="174" text-anchor="middle" class="node-sub">new regime batches</text>

  <line x1="220" y1="164" x2="260" y2="164" stroke="#374151" stroke-width="2" marker-end="url(#arr-naive)"/>

  <rect x="260" y="120" width="180" height="88" rx="8" fill="#f3f4f6" stroke="#5e636b" stroke-width="1.4"/>
  <text x="350" y="154" text-anchor="middle" class="node-title">Frozen Backbone</text>
  <text x="350" y="174" text-anchor="middle" class="node-sub">transformer + optimizer</text>

  <line x1="440" y1="164" x2="700" y2="164" stroke="#374151" stroke-width="2" marker-end="url(#arr-naive)"/>

  <rect x="480" y="70" width="180" height="64" rx="8" fill="#fafafa" stroke="#98a2b3" stroke-width="1.3" stroke-dasharray="6 5"/>
  <text x="570" y="96" text-anchor="middle" class="node-title">Anchor Fixture</text>
  <text x="570" y="114" text-anchor="middle" class="node-sub">off</text>
  <line x1="528" y1="84" x2="612" y2="120" stroke="#98a2b3" stroke-width="2"/>
  <line x1="612" y1="84" x2="528" y2="120" stroke="#98a2b3" stroke-width="2"/>

  <rect x="700" y="120" width="180" height="88" rx="8" fill="#faefef" stroke="#a33232" stroke-width="1.6"/>
  <text x="790" y="154" text-anchor="middle" class="node-title">Update Operator</text>
  <text x="790" y="174" text-anchor="middle" class="node-sub">raw drift step</text>

  <line x1="880" y1="164" x2="920" y2="164" stroke="#374151" stroke-width="2" marker-end="url(#arr-naive)"/>

  <rect x="920" y="120" width="180" height="88" rx="8" fill="#edf4ef" stroke="#415f4f" stroke-width="1.4"/>
  <text x="1010" y="154" text-anchor="middle" class="node-title">Decision Layer</text>
  <text x="1010" y="174" text-anchor="middle" class="node-sub">weights and risk budget</text>

  <rect x="40" y="242" width="360" height="54" rx="6" fill="#f8fafc" stroke="#d8dde5"/>
  <text x="58" y="264" class="tag">Preserves</text>
  <text x="120" y="264" class="tag-val">none beyond frozen backbone</text>
  <text x="58" y="284" class="tag">Control</text>
  <text x="108" y="284" class="tag-val">no stability boundary</text>

  <rect x="420" y="242" width="360" height="54" rx="6" fill="#f8fafc" stroke="#d8dde5"/>
  <text x="438" y="264" class="tag">Allows change</text>
  <text x="526" y="264" class="tag-val">max drift adaptation speed</text>
  <text x="438" y="284" class="tag">Failure mode</text>
  <text x="508" y="284" class="tag-val">stress memory erased</text>

  <rect x="800" y="242" width="300" height="54" rx="6" fill="#fff6f6" stroke="#e2b4b4"/>
  <text x="818" y="264" class="tag">Deployment read</text>
  <text x="905" y="264" class="tag-val">highly reactive, brittle</text>
  <text x="818" y="284" class="tag">Use case</text>
  <text x="868" y="284" class="tag-val">short-lived drift probe only</text>
</svg>
