<svg xmlns="http://www.w3.org/2000/svg" viewBox="0 0 1280 224" role="img" aria-label="Naive strategy pipeline">
  <defs>
    <style>
      .t { font: 600 18px 'IBM Plex Sans', Arial, sans-serif; fill: #1c232d; }
      .k { font: 600 11px 'IBM Plex Sans', Arial, sans-serif; letter-spacing: .08em; text-transform: uppercase; fill: #5a6474; }
      .n { font: 600 14px 'IBM Plex Sans', Arial, sans-serif; fill: #1f2833; }
      .s { font: 500 11px 'IBM Plex Sans', Arial, sans-serif; fill: #3f4a5a; }
      .chip { font: 600 11px 'IBM Plex Sans', Arial, sans-serif; fill: #243041; }
    </style>
    <marker id="a" markerWidth="8" markerHeight="8" refX="7" refY="4" orient="auto">
      <path d="M0,0 L8,4 L0,8 z" fill="#2f3a47"/>
    </marker>
  </defs>

  <rect width="1280" height="224" fill="#ffffff"/>
  <rect x="8" y="8" width="1264" height="208" rx="10" fill="#ffffff" stroke="#d4dbe4"/>
  <text x="28" y="34" class="t">A. Naive: unconstrained drift update</text>

  <text x="62" y="58" class="k">Data</text>
  <text x="316" y="58" class="k">Frozen</text>
  <text x="566" y="58" class="k">Memory</text>
  <text x="816" y="58" class="k">Update</text>
  <text x="1066" y="58" class="k">Decision</text>

  <rect x="28" y="70" width="220" height="92" rx="10" fill="#eef3f8" stroke="#5a6f88"/>
  <text x="138" y="108" text-anchor="middle" class="n">LLM stream</text>
  <text x="138" y="128" text-anchor="middle" class="s">regime tokens</text>

  <line x1="248" y1="116" x2="278" y2="116" stroke="#2f3a47" stroke-width="2" marker-end="url(#a)"/>

  <rect x="278" y="70" width="220" height="92" rx="10" fill="#f8fafc" stroke="#6a7686"/>
  <text x="388" y="108" text-anchor="middle" class="n">Backbone fixed</text>
  <text x="388" y="128" text-anchor="middle" class="s">model + optimizer</text>

  <line x1="498" y1="116" x2="528" y2="116" stroke="#2f3a47" stroke-width="2" marker-end="url(#a)"/>

  <rect x="528" y="70" width="220" height="92" rx="10" fill="#fcfcfd" stroke="#a8b2bf" stroke-dasharray="7 5"/>
  <text x="638" y="108" text-anchor="middle" class="n">Anchor off</text>
  <text x="638" y="128" text-anchor="middle" class="s">no replay signal</text>

  <line x1="748" y1="116" x2="778" y2="116" stroke="#2f3a47" stroke-width="2" marker-end="url(#a)"/>

  <rect x="778" y="70" width="220" height="92" rx="10" fill="#fbf1ed" stroke="#8c5b2f"/>
  <text x="888" y="108" text-anchor="middle" class="n">Raw step</text>
  <text x="888" y="128" text-anchor="middle" class="s">g = g_d</text>

  <line x1="998" y1="116" x2="1028" y2="116" stroke="#2f3a47" stroke-width="2" marker-end="url(#a)"/>

  <rect x="1028" y="70" width="220" height="92" rx="10" fill="#eef4ef" stroke="#47644f"/>
  <text x="1138" y="108" text-anchor="middle" class="n">Portfolio action</text>
  <text x="1138" y="128" text-anchor="middle" class="s">weights + turnover</text>

  <rect x="28" y="174" width="294" height="28" rx="14" fill="#f8fafc" stroke="#d4dbe4"/>
  <text x="50" y="192" class="chip">Preserves: fixed backbone</text>

  <rect x="332" y="174" width="346" height="28" rx="14" fill="#f8fafc" stroke="#d4dbe4"/>
  <text x="354" y="192" class="chip">Allows: all drift directions</text>

  <rect x="688" y="174" width="560" height="28" rx="14" fill="#fdf6f2" stroke="#dfc4ac"/>
  <text x="710" y="192" class="chip">Control point: none before decision conversion</text>
</svg>
