<svg xmlns="http://www.w3.org/2000/svg" viewBox="0 0 1280 360" role="img" aria-label="Naive strategy pipeline with no anchor protection">
  <defs>
    <style>
      .role { font: 600 12px 'IBM Plex Sans', Arial, sans-serif; letter-spacing: 0.08em; fill: #5b6572; text-transform: uppercase; }
      .title { font: 600 16px 'IBM Plex Sans', Arial, sans-serif; fill: #1f2933; }
      .sub { font: 400 12px 'IBM Plex Sans', Arial, sans-serif; fill: #374151; }
      .chip { font: 600 11px 'IBM Plex Sans', Arial, sans-serif; fill: #293241; }
      .chipv { font: 400 11px 'IBM Plex Sans', Arial, sans-serif; fill: #374151; }
    </style>
    <marker id="arr" markerWidth="8" markerHeight="8" refX="7" refY="4" orient="auto">
      <path d="M0,0 L8,4 L0,8 z" fill="#334155"/>
    </marker>
  </defs>

  <rect width="1280" height="360" fill="#ffffff"/>
  <rect x="8" y="8" width="1264" height="344" rx="10" fill="#ffffff" stroke="#d8dde5"/>

  <text x="34" y="36" class="title">A. Naive Update: unconstrained drift adaptation</text>

  <text x="76" y="66" class="role">Data</text>
  <text x="308" y="66" class="role">Frozen System</text>
  <text x="540" y="66" class="role">Anchor Memory</text>
  <text x="772" y="66" class="role">Update</text>
  <text x="1004" y="66" class="role">Decision</text>

  <rect x="34" y="96" width="210" height="118" rx="10" fill="#edf2f8" stroke="#50627a" stroke-width="1.5"/>
  <text x="139" y="138" text-anchor="middle" class="title" font-size="15">LLM signal stream</text>
  <text x="139" y="160" text-anchor="middle" class="sub">regime-conditioned tokens</text>

  <line x1="244" y1="155" x2="266" y2="155" stroke="#334155" stroke-width="2.2" marker-end="url(#arr)"/>

  <rect x="266" y="96" width="210" height="118" rx="10" fill="#f3f4f6" stroke="#5f6670" stroke-width="1.5"/>
  <text x="371" y="138" text-anchor="middle" class="title" font-size="15">Backbone frozen</text>
  <text x="371" y="160" text-anchor="middle" class="sub">transformer + portfolio solver</text>

  <line x1="476" y1="155" x2="498" y2="155" stroke="#334155" stroke-width="2.2" marker-end="url(#arr)"/>

  <rect x="498" y="96" width="210" height="118" rx="10" fill="#fafafa" stroke="#9aa3b2" stroke-width="1.4" stroke-dasharray="7 6"/>
  <text x="603" y="138" text-anchor="middle" class="title" font-size="15">Anchor fixture</text>
  <text x="603" y="160" text-anchor="middle" class="sub">disabled</text>
  <line x1="560" y1="122" x2="646" y2="188" stroke="#9aa3b2" stroke-width="2"/>
  <line x1="646" y1="122" x2="560" y2="188" stroke="#9aa3b2" stroke-width="2"/>

  <line x1="708" y1="155" x2="730" y2="155" stroke="#334155" stroke-width="2.2" marker-end="url(#arr)"/>

  <rect x="730" y="96" width="210" height="118" rx="10" fill="#fdf1f1" stroke="#a33232" stroke-width="1.7"/>
  <text x="835" y="138" text-anchor="middle" class="title" font-size="15">Raw update</text>
  <text x="835" y="160" text-anchor="middle" class="sub">full drift gradient passes</text>

  <line x1="940" y1="155" x2="962" y2="155" stroke="#334155" stroke-width="2.2" marker-end="url(#arr)"/>

  <rect x="962" y="96" width="284" height="118" rx="10" fill="#edf4ef" stroke="#415f4f" stroke-width="1.5"/>
  <text x="1104" y="138" text-anchor="middle" class="title" font-size="15">Portfolio decision layer</text>
  <text x="1104" y="160" text-anchor="middle" class="sub">weights, turnover, risk budget</text>

  <rect x="34" y="246" width="396" height="84" rx="8" fill="#f8fafc" stroke="#d8dde5"/>
  <text x="52" y="272" class="chip">Preserves</text>
  <text x="116" y="272" class="chipv">frozen backbone only</text>
  <text x="52" y="296" class="chip">Allows change</text>
  <text x="142" y="296" class="chipv">all drift signals</text>

  <rect x="442" y="246" width="396" height="84" rx="8" fill="#f8fafc" stroke="#d8dde5"/>
  <text x="460" y="272" class="chip">Control enforcement</text>
  <text x="556" y="272" class="chipv">none before optimizer</text>
  <text x="460" y="296" class="chip">Primary failure mode</text>
  <text x="566" y="296" class="chipv">stress memory erosion</text>

  <rect x="850" y="246" width="396" height="84" rx="8" fill="#fff7f7" stroke="#ebc8c8"/>
  <text x="868" y="272" class="chip">Quant read</text>
  <text x="932" y="272" class="chipv">reactive baseline, poor release safety</text>
  <text x="868" y="296" class="chip">Deployment role</text>
  <text x="961" y="296" class="chipv">diagnostic benchmark only</text>
</svg>
